<!--?xml version="1.0" encoding="utf-8"?-->
<!-- Generator: Adobe Illustrator 21.1.0, SVG Export Plug-In . SVG Version: 6.00 Build 0)  -->
<svg version="1.1" id="Layer_1" xmlns="http://www.w3.org/2000/svg" xmlns:xlink="http://www.w3.org/1999/xlink" x="0px" y="0px" viewBox="0 0 1382 1080" style="" xml:space="preserve">
<style type="text/css">
	.st0{fill:none;stroke:#FFCC7C;stroke-miterlimit:10;}
	.st1{fill:none;stroke:#F49B52;stroke-miterlimit:10;}
	.st2{fill:none;stroke:#F38030;stroke-miterlimit:10;}
	.st3{fill:none;stroke:#FBDA2F;stroke-miterlimit:10;}
	.st4{fill:none;stroke:#FADE7E;stroke-miterlimit:10;}
	.st5{fill:none;stroke:#F0CB1D;stroke-miterlimit:10;}
	.st6{fill:none;stroke:#62C0EC;stroke-miterlimit:10;}
	.st7{fill:none;stroke:#9DD8F5;stroke-miterlimit:10;}
	.st8{fill:none;stroke:#6FCBF0;stroke-miterlimit:10;}
	.st9{fill:none;stroke:#92C96E;stroke-miterlimit:10;}
	.st10{fill:none;stroke:#A9D086;stroke-miterlimit:10;}
	.st11{fill:none;stroke:#80BF5C;stroke-miterlimit:10;}
</style>
<g id="XMLID_39_">
	<path class="st0 vQEnIjmb_0" d="M620.9,719.2c0,0-0.1,0-0.1,0L360.1,448.4c0,0,0-0.1,0-0.1c0,0,0-0.1,0.1-0.1L515.8,358c0,0,0.1,0,0.1,0
		c0,0,0,0,0.1,0c0,0,0.1,0.1,0.1,0.1L621.1,719C621.1,719,621,719.1,620.9,719.2C621,719.1,620.9,719.2,620.9,719.2z"></path>
</g>
<g id="XMLID_37_">
	<path class="st1 vQEnIjmb_1" d="M360.1,448.4L-4.9,359c-0.1,0-0.1-0.1-0.1-0.1c0-0.1,0-0.1,0.1-0.1l364.8-90.4c0,0,0,0,0,0c0,0,0.1,0,0.1,0
		c0,0,0.1,0.1,0.1,0.1l0.2,179.9c0,0,0,0.1-0.1,0.1C360.2,448.4,360.2,448.5,360.1,448.4C360.2,448.5,360.2,448.5,360.1,448.4z"></path>
</g>
<g id="XMLID_35_">
	<path class="st1 vQEnIjmb_2" d="M515.8,358.3C515.8,358.3,515.8,358.3,515.8,358.3l-156-89.7c0,0-0.1-0.1-0.1-0.1c0,0,0-0.1,0-0.1l260-271.4
		c0,0,0.1,0,0.1,0c0,0,0.1,0,0.1,0c0.1,0,0.1,0.1,0.1,0.2L516,358.2C516,358.2,515.9,358.3,515.8,358.3
		C515.9,358.3,515.9,358.3,515.8,358.3z"></path>
</g>
<g id="XMLID_33_">
	<path class="st2 vQEnIjmb_3" d="M360.2,448.5C360.2,448.5,360.1,448.4,360.2,448.5c-0.1,0-0.2-0.1-0.2-0.2l-0.2-179.9c0-0.1,0-0.1,0.1-0.1
		c0,0,0.1,0,0.1,0s0.1,0,0.1,0L515.9,358c0,0,0.1,0.1,0.1,0.1c0,0.1,0,0.1-0.1,0.1L360.2,448.5C360.2,448.4,360.2,448.5,360.2,448.5
		z"></path>
</g>
<g id="XMLID_1_">
	<path class="st2 vQEnIjmb_4" d="M339.3,233C339.3,233,339.3,233,339.3,233l-114.7-66c0,0-0.1-0.1-0.1-0.1c0-0.1,0-0.1,0.1-0.1l114.4-66.3
		c0,0,0.1,0,0.1,0s0.1,0,0.1,0c0,0,0.1,0.1,0.1,0.1l0.2,132.2C339.5,232.9,339.4,232.9,339.3,233C339.4,233,339.3,233,339.3,233z"></path>
</g>
<g>
	<g id="XMLID_2817_">
		<path class="st3 vQEnIjmb_5" d="M100,719C100,719,99.9,719,100,719c-0.1,0-0.1-0.1-0.1-0.1L-5.2,358c0-0.1,0-0.1,0.1-0.2c0,0,0.1,0,0.1,0
			c0,0,0.1,0,0.1,0l260.7,270.7c0,0,0,0.1,0,0.1c0,0,0,0.1-0.1,0.1L100,719C100,719,100,719,100,719z"></path>
	</g>
	<g id="XMLID_2815_">
		<path class="st4 vQEnIjmb_6" d="M-4.1,1080.2C-4.1,1080.2-4.1,1080.1-4.1,1080.2c-0.1-0.1-0.2-0.1-0.1-0.2L99.8,718.8c0,0,0-0.1,0.1-0.1
			c0,0,0,0,0.1,0c0,0,0.1,0,0.1,0L256,808.4c0,0,0.1,0.1,0.1,0.1c0,0,0,0.1,0,0.1L-4,1080.1C-4,1080.1-4.1,1080.2-4.1,1080.2z"></path>
	</g>
	<g id="XMLID_2813_">
		<path class="st3 vQEnIjmb_7" d="M255.9,808.7C255.8,808.7,255.8,808.7,255.9,808.7c-0.1-0.1-0.2-0.1-0.2-0.2l-0.2-179.9c0,0,0-0.1,0.1-0.1
			c0,0,0.1,0,0.1,0c0,0,0,0,0,0l365,89.4c0.1,0,0.1,0.1,0.1,0.1c0,0.1,0,0.1-0.1,0.1L255.9,808.7
			C255.9,808.7,255.9,808.7,255.9,808.7z"></path>
	</g>
	<g id="XMLID_2811_">
		<path class="st5 vQEnIjmb_8" d="M255.9,808.7C255.9,808.7,255.8,808.7,255.9,808.7L99.9,719c0,0-0.1-0.1-0.1-0.1s0-0.1,0.1-0.1l155.7-90.2
			c0,0,0.1,0,0.1,0s0.1,0,0.1,0c0,0,0.1,0.1,0.1,0.1l0.2,179.9C256,808.6,256,808.7,255.9,808.7
			C255.9,808.7,255.9,808.7,255.9,808.7z"></path>
	</g>
</g>
<g>
	<g id="XMLID_2797_">
		<path class="st6 vQEnIjmb_9" d="M903.6,615.4C903.6,615.4,903.5,615.4,903.6,615.4c-0.1,0-0.2-0.1-0.2-0.2L903.3,483c0-0.1,0-0.1,0.1-0.1
			c0,0,0.1,0,0.1,0s0.1,0,0.1,0l114.6,65.9c0,0,0.1,0.1,0.1,0.1s0,0.1-0.1,0.1L903.6,615.4C903.7,615.4,903.6,615.4,903.6,615.4z"></path>
	</g>
	<g id="XMLID_2795_">
		<path class="st7 vQEnIjmb_10" d="M727,358C727,358,726.9,358,727,358c-0.1,0-0.1-0.1-0.1-0.1L621.8-3c0-0.1,0-0.1,0.1-0.2c0,0,0.1,0,0.1,0
			c0,0,0.1,0,0.1,0l260.7,270.7c0,0,0,0.1,0,0.1c0,0,0,0.1-0.1,0.1L727,358C727,358,727,358,727,358z"></path>
	</g>
	<g id="XMLID_2793_">
		<path class="st8 vQEnIjmb_11" d="M622.9,719.2C622.9,719.2,622.8,719.1,622.9,719.2c-0.1-0.1-0.2-0.1-0.1-0.2l104.1-361.1c0,0,0-0.1,0.1-0.1
			c0,0,0,0,0.1,0c0,0,0.1,0,0.1,0L883,447.4c0,0,0.1,0.1,0.1,0.1c0,0,0,0.1,0,0.1L623,719.1C623,719.1,622.9,719.2,622.9,719.2z"></path>
	</g>
	<g id="XMLID_2791_">
		<path class="st8 vQEnIjmb_12" d="M882.9,447.7C882.8,447.7,882.8,447.7,882.9,447.7c-0.1-0.1-0.2-0.1-0.2-0.2l-0.2-179.9c0,0,0-0.1,0.1-0.1
			c0,0,0.1,0,0.1,0c0,0,0,0,0,0l365,89.4c0.1,0,0.1,0.1,0.1,0.1c0,0.1,0,0.1-0.1,0.1L882.9,447.7
			C882.9,447.7,882.9,447.7,882.9,447.7z"></path>
	</g>
	<g id="XMLID_2789_">
		<path class="st6 vQEnIjmb_13" d="M882.9,447.7C882.8,447.7,882.8,447.7,882.9,447.7l-156-89.7c0,0-0.1-0.1-0.1-0.1c0-0.1,0-0.1,0.1-0.1
			l155.7-90.2c0,0,0.1,0,0.1,0s0.1,0,0.1,0c0,0,0.1,0.1,0.1,0.1l0.2,179.9C883,447.6,883,447.7,882.9,447.7
			C882.9,447.7,882.9,447.7,882.9,447.7z"></path>
	</g>
</g>
<g>
	<g id="XMLID_2777_">
		<path class="st9 vQEnIjmb_14" d="M516.6,1079.4C516.6,1079.4,516.6,1079.4,516.6,1079.4l-156-89.7c0,0-0.1-0.1-0.1-0.1c0,0,0-0.1,0-0.1
			l260-271.4c0,0,0.1,0,0.1,0c0,0,0.1,0,0.1,0c0.1,0,0.1,0.1,0.1,0.2l-104.1,361.1C516.7,1079.4,516.7,1079.4,516.6,1079.4
			C516.6,1079.4,516.6,1079.4,516.6,1079.4z"></path>
	</g>
	<g id="XMLID_2775_">
		<path class="st9 vQEnIjmb_15" d="M621.7,1440.3c0,0-0.1,0-0.1,0l-260.7-270.7c0,0,0-0.1,0-0.1c0,0,0-0.1,0.1-0.1l155.7-90.2c0,0,0.1,0,0.1,0
			c0,0,0,0,0.1,0c0,0,0.1,0.1,0.1,0.1l105.1,360.9C621.8,1440.2,621.8,1440.2,621.7,1440.3C621.7,1440.3,621.7,1440.3,621.7,1440.3z
			"></path>
	</g>
	<g id="XMLID_2773_">
		<path class="st10 vQEnIjmb_16" d="M360.9,1169.6l-365-89.4c-0.1,0-0.1-0.1-0.1-0.1c0-0.1,0-0.1,0.1-0.1l364.8-90.4c0,0,0,0,0,0
			c0,0,0.1,0,0.1,0c0,0,0.1,0.1,0.1,0.1l0.2,179.9c0,0,0,0.1-0.1,0.1C361,1169.6,361,1169.6,360.9,1169.6
			C360.9,1169.6,360.9,1169.6,360.9,1169.6z"></path>
	</g>
	<g id="XMLID_2771_">
		<path class="st11 vQEnIjmb_17" d="M360.9,1169.6C360.9,1169.6,360.9,1169.6,360.9,1169.6c-0.1,0-0.2-0.1-0.2-0.2l-0.2-179.9
			c0-0.1,0-0.1,0.1-0.1c0,0,0.1,0,0.1,0s0.1,0,0.1,0l155.9,89.7c0,0,0.1,0.1,0.1,0.1s0,0.1-0.1,0.1L360.9,1169.6
			C361,1169.6,361,1169.6,360.9,1169.6z"></path>
	</g>
	<g id="XMLID_2769_">
		<path class="st11 vQEnIjmb_18" d="M672.4,1145.3C672.3,1145.3,672.3,1145.2,672.4,1145.3l-114.7-66c0,0-0.1-0.1-0.1-0.1s0-0.1,0.1-0.1
			l114.4-66.3c0,0,0.1,0,0.1,0s0.1,0,0.1,0c0,0,0.1,0.1,0.1,0.1l0.2,132.2C672.5,1145.2,672.5,1145.2,672.4,1145.3
			C672.4,1145.2,672.4,1145.3,672.4,1145.3z"></path>
	</g>
</g>
<style>.vQEnIjmb_0{stroke-dasharray:933 935;stroke-dashoffset:934;animation:vQEnIjmb_draw 256ms ease-in-out 0ms forwards;}.vQEnIjmb_1{stroke-dasharray:933 935;stroke-dashoffset:934;animation:vQEnIjmb_draw 256ms ease-in-out 256ms forwards;}.vQEnIjmb_2{stroke-dasharray:933 935;stroke-dashoffset:934;animation:vQEnIjmb_draw 256ms ease-in-out 512ms forwards;}.vQEnIjmb_3{stroke-dasharray:541 543;stroke-dashoffset:542;animation:vQEnIjmb_draw 148ms ease-in-out 769ms forwards;}.vQEnIjmb_4{stroke-dasharray:398 400;stroke-dashoffset:399;animation:vQEnIjmb_draw 109ms ease-in-out 917ms forwards;}.vQEnIjmb_5{stroke-dasharray:933 935;stroke-dashoffset:934;animation:vQEnIjmb_draw 256ms ease-in-out 1027ms forwards;}.vQEnIjmb_6{stroke-dasharray:933 935;stroke-dashoffset:934;animation:vQEnIjmb_draw 256ms ease-in-out 1283ms forwards;}.vQEnIjmb_7{stroke-dasharray:933 935;stroke-dashoffset:934;animation:vQEnIjmb_draw 256ms ease-in-out 1540ms forwards;}.vQEnIjmb_8{stroke-dasharray:541 543;stroke-dashoffset:542;animation:vQEnIjmb_draw 148ms ease-in-out 1796ms forwards;}.vQEnIjmb_9{stroke-dasharray:399 401;stroke-dashoffset:400;animation:vQEnIjmb_draw 109ms ease-in-out 1945ms forwards;}.vQEnIjmb_10{stroke-dasharray:933 935;stroke-dashoffset:934;animation:vQEnIjmb_draw 256ms ease-in-out 2054ms forwards;}.vQEnIjmb_11{stroke-dasharray:933 935;stroke-dashoffset:934;animation:vQEnIjmb_draw 256ms ease-in-out 2311ms forwards;}.vQEnIjmb_12{stroke-dasharray:933 935;stroke-dashoffset:934;animation:vQEnIjmb_draw 256ms ease-in-out 2567ms forwards;}.vQEnIjmb_13{stroke-dasharray:541 543;stroke-dashoffset:542;animation:vQEnIjmb_draw 148ms ease-in-out 2823ms forwards;}.vQEnIjmb_14{stroke-dasharray:933 935;stroke-dashoffset:934;animation:vQEnIjmb_draw 256ms ease-in-out 2972ms forwards;}.vQEnIjmb_15{stroke-dasharray:933 935;stroke-dashoffset:934;animation:vQEnIjmb_draw 256ms ease-in-out 3229ms forwards;}.vQEnIjmb_16{stroke-dasharray:933 935;stroke-dashoffset:934;animation:vQEnIjmb_draw 256ms ease-in-out 3485ms forwards;}.vQEnIjmb_17{stroke-dasharray:541 543;stroke-dashoffset:542;animation:vQEnIjmb_draw 148ms ease-in-out 3741ms forwards;}.vQEnIjmb_18{stroke-dasharray:398 400;stroke-dashoffset:399;animation:vQEnIjmb_draw 109ms ease-in-out 3890ms forwards;}@keyframes vQEnIjmb_draw{100%{stroke-dashoffset:0;}}@keyframes vQEnIjmb_fade{0%{stroke-opacity:1;}95.1219512195122%{stroke-opacity:1;}100%{stroke-opacity:0;}}</style></svg>
