<?xml version="1.0" encoding="utf-8"?>
<!-- Generator: Adobe Illustrator 21.0.2, SVG Export Plug-In . SVG Version: 6.00 Build 0)  -->
<svg version="1.1" id="Layer_1" xmlns="http://www.w3.org/2000/svg" xmlns:xlink="http://www.w3.org/1999/xlink" x="0px" y="0px"
	 viewBox="0 0 841.9 595.3" style="enable-background:new 0 0 841.9 595.3;" xml:space="preserve">
<g>
	<g id="XMLID_2897_">
		<g id="XMLID_2898_">
			<path id="XMLID_2899_" d="M270.7,273.3v67.9h-18.2v-67.9h-25.2v-15.9h68.6v15.9H270.7z"/>
		</g>
	</g>
	<g id="XMLID_2893_">
		<path id="XMLID_2894_" d="M335.6,318H295c0.7,3.3,2.2,5.9,4.3,7.8c2.1,1.9,4.7,2.9,7.6,2.9c5.5,0,9.5-2.1,11.8-6.4l15.7,3.2
			c-2.4,5.7-5.9,10.1-10.7,13s-10.4,4.4-16.8,4.4c-8.2,0-15.1-2.7-20.8-8.2c-5.7-5.5-8.5-12.5-8.5-21.1c0-8.5,2.8-15.5,8.5-21.1
			c5.7-5.5,12.6-8.3,20.9-8.3c8,0,14.8,2.7,20.2,8c5.4,5.4,8.2,12.5,8.4,21.3V318z M299.8,300.9c-2.2,1.5-3.7,3.7-4.5,6.4h22.9
			c-0.8-2.9-2.2-5-4.2-6.5c-2-1.5-4.3-2.2-7-2.2C304.4,298.5,302,299.3,299.8,300.9z"/>
	</g>
	<g id="XMLID_2890_">
		<path id="XMLID_2891_" d="M358.6,320.9v20.3h-17.7V253h17.7v53.8l19.2-20.9h21.9l-25,27.7l26.7,27.7h-23L358.6,320.9z"/>
	</g>
	<g id="XMLID_2887_">
		<path id="XMLID_2888_" d="M462.6,341.3h-13.2l-10.9-28.5l-10.9,28.5h-13.2l-21-55.4h18.1l10.2,30l11-30h11.7l11,30l10.2-30h18.1
			L462.6,341.3z"/>
	</g>
	<g id="XMLID_2883_">
		<path id="XMLID_2884_" d="M501.2,261c2,1.9,2.9,4.3,2.9,7c0,2.8-1,5.1-2.9,7.1c-1.9,1.9-4.4,2.9-7.3,2.9c-2.9,0-5.4-0.9-7.3-2.8
			c-1.9-1.9-2.9-4.2-2.9-7.1c0-2.7,1-5.1,2.9-7c1.9-1.9,4.3-2.9,7.3-2.9C496.8,258.1,499.2,259.1,501.2,261z M485,341.2v-55.3h17.7
			v55.3H485z"/>
	</g>
	<g id="XMLID_2880_">
		<path id="XMLID_2881_" d="M528.8,322.3c0,1.5,0.5,2.6,1.4,3.5c1,0.9,2.2,1.3,3.9,1.3c1.3,0,3.5-0.5,6.4-1.5l2.8,13.8
			c-4.7,2.3-9.1,3.4-13,3.4c-5.7,0-10.4-1.8-13.9-5.3c-3.5-3.5-5.2-8.2-5.2-13.9V253h17.7V322.3z"/>
	</g>
	<g id="XMLID_2877_">
		<path id="XMLID_2878_" d="M563.8,322.3c0,1.5,0.5,2.6,1.4,3.5c1,0.9,2.2,1.3,3.9,1.3c1.3,0,3.5-0.5,6.4-1.5l2.8,13.8
			c-4.7,2.3-9.1,3.4-13,3.4c-5.7,0-10.4-1.8-13.9-5.3c-3.5-3.5-5.2-8.2-5.2-13.9V253h17.7V322.3z"/>
	</g>
	<g id="XMLID_2829_">
		<g id="XMLID_2873_">
			<path id="XMLID_2874_" d="M593.8,333v9.8h-4.3V333h-4.1v-3.6h12.5v3.6H593.8z M611,342.8V336l-2.7,4.1h-2.1l-2.7-4.1v6.8h-4
				v-13.4h3.9l3.9,5.8l3.9-5.8h3.8v13.4H611z"/>
		</g>
	</g>
</g>
</svg>
