<svg id="Layer_1" data-name="Layer 1" xmlns="http://www.w3.org/2000/svg" viewBox="0 0 3307.09 1826.5">
    <defs>
        <style>
            .cls-1,.cls-14,.cls-2,.cls-25,.cls-8{fill:#fff;}.cls-10,.cls-11,.cls-12,.cls-13,.cls-14,.cls-15,.cls-16,.cls-17,.cls-19,.cls-2,.cls-20,.cls-21,.cls-22,.cls-23,.cls-24,.cls-26,.cls-27,.cls-28,.cls-29,.cls-3,.cls-5,.cls-6,.cls-7,.cls-8,.cls-9{stroke:#231f20;}.cls-10,.cls-11,.cls-12,.cls-13,.cls-14,.cls-15,.cls-16,.cls-19,.cls-2,.cls-20,.cls-21,.cls-22,.cls-23,.cls-24,.cls-26,.cls-27,.cls-28,.cls-29,.cls-3,.cls-4,.cls-5,.cls-6,.cls-7,.cls-8,.cls-9{stroke-miterlimit:10;}.cls-11,.cls-13,.cls-15,.cls-2,.cls-20,.cls-21,.cls-22,.cls-23,.cls-24,.cls-26,.cls-27,.cls-28,.cls-29,.cls-5,.cls-6,.cls-7,.cls-9{stroke-width:0.28px;}.cls-3{fill:#00a1d3;}.cls-14,.cls-16,.cls-3{stroke-width:0.57px;}.cls-4{fill:#e6e5e1;stroke:#000;stroke-width:0.28px;}.cls-12,.cls-15,.cls-16,.cls-20,.cls-21,.cls-22,.cls-27,.cls-28,.cls-29,.cls-5,.cls-6,.cls-9{fill:none;}.cls-5{stroke-dasharray:2.83
            1.42;}.cls-7{fill:#00a7d4;}.cls-9{stroke-dasharray:1.42;}.cls-10{fill:#949ca2;}.cls-11{fill:#00a4de;}.cls-12{stroke-width:0.23px;stroke-dasharray:2.83
            2.83;}.cls-13{fill:#00b7e3;}.cls-15{stroke-dasharray:2.83;}.cls-17{fill:#f7f7f8;stroke-width:0.28px;}.cls-18{fill:#a4a7a9;}.cls-19{fill:#989a9d;stroke-width:0.71px;}.cls-20{stroke-dasharray:1.42
            1.42;}.cls-21{stroke-dasharray:1.41 1.41;}.cls-22{stroke-dasharray:1.42
            1.42;}.cls-23{fill:#00a9df;}.cls-24{fill:#dbd0cd;}.cls-25{stroke:#221e20;stroke-width:0.26px;}.cls-26{fill:#e5e6e1;}.cls-27{stroke-dasharray:1.42
            1.42;}.cls-28{stroke-dasharray:1.42 1.42;}.cls-29{stroke-dasharray:1.43 1.43;}
        </style>
    </defs>
    <title>second-floor</title>
    <rect class="cls-1" x="1717.51" y="529.65" width="1084.69" height="746.9"/>
    <rect class="cls-1" x="28.6" y="35.9" width="183.9" height="371.4"/>
    <rect class="cls-1" x="208.16" y="35.9" width="183.9" height="371.4"/>
    <rect class="cls-1" x="733.26" y="35.9" width="183.9" height="371.4"/>
    <rect class="cls-1" x="916.52" y="35.9" width="153.21" height="371.4"/>
    <rect class="cls-1" x="721.16" y="752.18" width="698.66" height="357.53"/>
    <rect class="cls-1" x="32.82" y="752.18" width="600.37" height="357.53"/>
    <polygon class="cls-1"
             points="751.92 1557.42 751.92 1111.45 39.89 1111.45 39.89 1557.42 39.89 1560.89 39.89 1794.1 1419.48 1794.1 1419.48 1557.42 751.92 1557.42"/>
    <rect class="cls-1" x="1068.57" y="35.9" width="182.62" height="371.4"/>
    <rect class="cls-1" x="1086.83" y="492.59" width="351.71" height="265.78"/>
    <rect class="cls-1" x="722.4" y="492.59" width="371.21" height="265.78"/>
    <rect class="cls-1" x="40.41" y="492.59" width="473.82" height="265.78"/>
    <rect class="cls-1" x="2127.31" y="30.9" width="395.98" height="371.4"/>
    <rect class="cls-1" x="2522.6" y="30.9" width="646.15" height="371.4"/>
    <rect class="cls-1" x="2801.53" y="535.26" width="367.23" height="738.79"/>
    <rect class="cls-1" x="2602.37" y="1408.7" width="566.38" height="372.24"/>
    <polygon class="cls-1"
             points="1780.84 1545.63 1780.84 1663.41 1744.51 1663.41 1744.51 1780.94 1780.84 1780.94 1784.9 1780.94 2215.66 1780.94 2215.66 1545.63 1780.84 1545.63"/>
    <polygon class="cls-1"
             points="1779.04 1408.7 1748.05 1408.7 1743.19 1408.7 1618.67 1408.7 1618.67 1279.85 1421.07 1279.85 1421.07 1408.7 1421.07 1419.28 1421.07 1780.94 1748.05 1780.94 1748.05 1663.41 1779.04 1663.41 1779.04 1408.7"/>
    <polygon class="cls-1"
             points="2214.04 1408.7 2151.23 1408.7 2151.23 1543.1 2214.04 1543.1 2214.04 1780.94 2600.77 1780.94 2600.77 1408.7 2214.04 1408.7"/>
    <polygon class="cls-1"
             points="2127.65 29.56 1790.26 29.56 1789.33 29.56 1435.76 29.56 1435.76 400.96 1790.26 400.96 1790.26 267.85 2127.65 267.85 2127.65 29.56"/>
    <rect class="cls-1" x="392.06" y="35.9" width="341.05" height="371.4"/>
    <rect class="cls-1" x="512.4" y="492.59" width="120.8" height="131.55"/>
    <rect class="cls-1" x="512.4" y="620.59" width="120.8" height="131.55"/>
    <rect class="cls-2" x="91.77" y="22.86" width="85.03" height="25.51"/>
    <rect class="cls-2" x="253.34" y="22.86" width="102.03" height="25.51"/>
    <rect class="cls-2" x="423.42" y="22.86" width="102.03" height="25.51"/>
    <rect class="cls-2" x="593.5" y="22.86" width="102.03" height="25.51"/>
    <rect class="cls-2" x="763.58" y="22.86" width="102.03" height="25.51"/>
    <rect class="cls-2" x="933.66" y="22.86" width="102.03" height="25.51"/>
    <rect class="cls-2" x="1112.07" y="22.86" width="102.03" height="25.51"/>
    <rect class="cls-2" x="1282.27" y="22.86" width="85.1" height="25.51"/>
    <rect class="cls-3" x="1282.27" y="30.68" width="85.1" height="4.93"/>
    <rect class="cls-3" x="933.66" y="30.68" width="102.03" height="4.93"/>
    <rect class="cls-3" x="763.58" y="30.68" width="102.03" height="4.93"/>
    <rect class="cls-3" x="593.5" y="30.68" width="102.03" height="4.93"/>
    <rect class="cls-3" x="423.42" y="30.68" width="102.03" height="4.93"/>
    <rect class="cls-3" x="253.34" y="30.68" width="102.03" height="4.93"/>
    <rect class="cls-3" x="91.77" y="30.68" width="85.03" height="4.93"/>
    <rect class="cls-2" x="142.38" y="1778.65" width="102.18" height="25.51"/>
    <rect class="cls-2" x="277.29" y="1778.65" width="102.18" height="25.51"/>
    <rect class="cls-2" x="436" y="1778.65" width="102.18" height="25.51"/>
    <rect class="cls-2" x="588.18" y="1778.65" width="119.06" height="25.51"/>
    <rect class="cls-2" x="759.36" y="1778.65" width="101.97" height="25.51"/>
    <rect class="cls-2" x="898.5" y="1778.65" width="101.97" height="25.51"/>
    <rect class="cls-2" x="1039.91" y="1778.65" width="119.06" height="25.51"/>
    <rect class="cls-2" x="1205.73" y="1778.65" width="102.04" height="25.51"/>
    <rect class="cls-4" x="751.92" y="1394.53" width="68.25" height="17.01"/>
    <rect class="cls-4" x="751.92" y="1326.71" width="68.25" height="67.82"/>
    <rect class="cls-4" x="751.92" y="1411.54" width="68.25" height="17.01"/>
    <rect class="cls-4" x="751.92" y="1428.55" width="68.25" height="17.01"/>
    <rect class="cls-4" x="751.92" y="1445.56" width="68.25" height="17.01"/>
    <rect class="cls-4" x="751.92" y="1462.56" width="68.25" height="17.01"/>
    <rect class="cls-4" x="751.92" y="1479.57" width="68.25" height="17.01"/>
    <rect class="cls-4" x="751.92" y="1496.58" width="68.25" height="17.01"/>
    <rect class="cls-4" x="751.92" y="1513.59" width="68.25" height="17.01"/>
    <rect class="cls-4" x="751.92" y="1224.66" width="68.25" height="17.01"/>
    <rect class="cls-4" x="751.92" y="1241.67" width="68.25" height="17.01"/>
    <rect class="cls-4" x="751.92" y="1258.68" width="68.25" height="17.01"/>
    <rect class="cls-4" x="751.92" y="1275.68" width="68.25" height="17.01"/>
    <rect class="cls-4" x="751.92" y="1292.69" width="68.25" height="17.01"/>
    <rect class="cls-4" x="751.92" y="1309.7" width="68.25" height="17.01"/>
    <rect class="cls-4" x="751.92" y="1530.6" width="68.25" height="17.01"/>
    <line class="cls-5" x1="786.04" y1="1554.73" x2="786.04" y2="1235.06"/>
    <polygon class="cls-6" points="775.7 1235.06 786.09 1224.66 796.49 1235.06 775.7 1235.06"/>
    <polygon class="cls-7"
             points="822.9 1542.5 822.81 1542.5 822.81 1114.51 821.45 1114.51 821.45 1542.5 821.45 1542.5 821.45 1547.6 821.45 1547.6 821.45 1547.6 822.81 1547.6 822.81 1547.6 822.9 1547.6 822.9 1542.5"/>
    <polygon class="cls-7"
             points="757.92 1558.87 757.92 1558.78 1411.02 1558.78 1411.02 1557.42 757.92 1557.42 757.92 1557.42 750.13 1557.42 750.13 1557.42 750.13 1557.42 750.13 1558.78 750.13 1558.78 750.13 1558.87 757.92 1558.87"/>
    <rect class="cls-8" x="718.32" y="746.74" width="715.64" height="6.97"/>
    <rect class="cls-8" x="1366.36" y="398.18" width="50.36" height="8.38"/>
    <rect class="cls-9" x="425.86" y="491.61" width="56.41" height="5.67"/>
    <rect x="178.98" y="491.61" width="246.88" height="5.67"/>
    <polygon
            points="213.33 398.18 213.33 48.37 253.34 48.37 253.34 22.86 176.8 22.86 176.8 48.37 204.95 48.37 204.95 398.18 178.44 398.18 178.44 406.56 289.29 406.56 289.29 398.18 213.33 398.18"/>
    <rect x="525.45" y="22.86" width="68.05" height="25.51"/>
    <polygon
            points="922 398.18 922 48.37 933.66 48.37 933.66 22.86 865.61 22.86 865.61 48.37 913.62 48.37 913.62 398.18 859.27 398.18 859.27 406.56 958.88 406.56 958.88 398.18 922 398.18"/>
    <rect x="1035.69" y="22.86" width="76.38" height="25.51"/>
    <rect x="1214.11" y="22.86" width="68.16" height="25.51"/>
    <rect class="cls-10" x="1367.36" y="22.86" width="70.91" height="25.51"/>
    <rect class="cls-9" x="32.81" y="1145.19" width="14.15" height="79.64"/>
    <rect class="cls-8" x="1412.12" y="752.43" width="14.2" height="1035.86"/>
    <rect class="cls-2" x="1254.66" y="140.02" width="68.04" height="187.11"/>
    <rect class="cls-2" x="1328.54" y="140.02" width="68.04" height="187.11"/>
    <rect class="cls-2" x="1254.66" y="66.93" width="141.92" height="73.08"/>
    <polygon
            points="633.19 619.23 633.19 565.13 627.52 565.13 627.52 619.23 514.23 619.23 514.23 497.28 627.52 497.28 627.52 519.96 633.19 519.96 633.19 491.61 633.19 491.61 633.19 491.61 482.27 491.61 482.27 497.28 508.56 497.28 508.56 749.58 514.23 749.58 514.23 624.9 627.52 624.9 627.52 673.46 633.19 673.46 633.19 624.9 633.19 624.9 633.19 619.23 633.19 619.23"/>
    <polygon
            points="627.52 863.69 627.52 1107.96 607.83 1107.96 607.83 1113.63 627.52 1113.63 633.19 1113.63 633.19 1107.96 633.19 863.69 627.52 863.69"/>
    <rect class="cls-11" x="1623.3" y="1408.7" width="75.93" height="1.7"/>
    <rect class="cls-11" x="1699.23" y="1408.7" width="75.93" height="1.7"/>
    <polygon class="cls-2"
             points="1953.05 1777.13 1945.51 1777.13 1430.69 1777.13 1430.69 1785.63 1945.51 1785.63 1953.05 1785.63 3149.14 1785.63 3149.14 1777.13 1953.05 1777.13"/>
    <polygon class="cls-12"
             points="1953.23 1771.22 1945.69 1771.22 1430.69 1771.22 1430.69 1788.23 1945.69 1788.23 1953.23 1788.23 3149.74 1788.23 3149.74 1771.22 1953.23 1771.22"/>
    <rect class="cls-13" x="1443" y="1779.73" width="1715.18" height="3.31"/>
    <rect class="cls-14" x="1443" y="1777.13" width="3.2" height="8.5"/>
    <rect class="cls-14" x="1509.33" y="1777.13" width="3.4" height="8.5"/>
    <rect class="cls-14" x="1587.29" y="1777.13" width="3.4" height="8.5"/>
    <rect class="cls-14" x="1665.24" y="1777.13" width="3.4" height="8.5"/>
    <rect class="cls-14" x="1743.19" y="1777.13" width="3.4" height="8.5"/>
    <rect class="cls-14" x="1821.14" y="1777.13" width="3.4" height="8.5"/>
    <rect class="cls-14" x="1899.1" y="1777.13" width="3.4" height="8.5"/>
    <rect class="cls-14" x="1977.05" y="1777.13" width="3.4" height="8.5"/>
    <rect class="cls-14" x="2055" y="1777.13" width="3.4" height="8.5"/>
    <rect class="cls-14" x="2132.96" y="1777.13" width="3.4" height="8.5"/>
    <rect class="cls-14" x="2210.91" y="1777.13" width="3.4" height="8.5"/>
    <rect class="cls-14" x="2288.86" y="1777.13" width="3.4" height="8.5"/>
    <rect class="cls-14" x="2366.81" y="1777.13" width="3.4" height="8.5"/>
    <rect class="cls-14" x="2444.77" y="1777.13" width="3.4" height="8.5"/>
    <rect class="cls-14" x="2522.72" y="1777.13" width="3.4" height="8.5"/>
    <rect class="cls-14" x="2600.67" y="1777.13" width="3.4" height="8.5"/>
    <rect class="cls-14" x="2678.62" y="1777.13" width="3.4" height="8.5"/>
    <rect class="cls-14" x="2756.58" y="1777.13" width="3.4" height="8.5"/>
    <rect class="cls-14" x="2834.53" y="1777.13" width="3.4" height="8.5"/>
    <rect class="cls-14" x="2912.48" y="1777.13" width="3.4" height="8.5"/>
    <rect class="cls-14" x="2990.44" y="1777.13" width="3.4" height="8.5"/>
    <rect class="cls-14" x="3068.39" y="1777.13" width="3.4" height="8.5"/>
    <rect class="cls-14" x="3146.34" y="1777.13" width="3.4" height="8.5"/>
    <polygon
            points="1822.76 261.96 1792.35 261.96 1790.34 261.96 1786.56 261.96 1786.56 387.07 1792.35 387.07 1792.35 267.75 1822.76 267.75 1822.76 261.96"/>
    <rect class="cls-15" x="1792.23" y="272.04" width="5.79" height="50.78"/>
    <rect x="1426.25" y="1771.22" width="16.75" height="17.01"/>
    <rect x="3159.83" y="22.8" width="17.86" height="422.01"/>
    <polygon
            points="3221.22 328.82 3195.55 328.82 3190.03 328.82 3181.2 328.82 3181.2 444.81 3195.55 444.81 3195.55 357.66 3221.22 357.66 3221.22 328.82"/>
    <rect x="2795.86" y="534.04" width="11.34" height="742.51"/>
    <rect class="cls-11" x="2446.47" y="1408.7" width="77.85" height="1.7"/>
    <rect class="cls-11" x="2368.61" y="1408.7" width="77.85" height="1.7"/>
    <rect class="cls-11" x="2212.91" y="1408.7" width="77.48" height="1.7"/>
    <rect class="cls-11" x="2152.06" y="1408.7" width="60.85" height="1.7"/>
    <rect x="2149.57" y="1408.7" width="5.67" height="136.92"/>
    <rect class="cls-11" x="1900.91" y="1544.77" width="77.6" height="1.7"/>
    <rect class="cls-11" x="1978.51" y="1544.77" width="66.63" height="1.7"/>
    <rect x="2045.13" y="1543.1" width="167.77" height="5.67"/>
    <rect x="2211.21" y="1543.1" width="5.67" height="233.75"/>
    <rect class="cls-11" x="2212.91" y="402.02" width="77.48" height="1.7"/>
    <rect class="cls-11" x="2155.14" y="402.02" width="57.55" height="1.7"/>
    <rect class="cls-11" x="2368.62" y="402.02" width="77.87" height="1.7"/>
    <rect class="cls-11" x="2446.5" y="402.02" width="73.53" height="1.7"/>
    <rect class="cls-11" x="2526.54" y="402.02" width="75.83" height="1.7"/>
    <rect x="2520.45" y="56.33" width="5.67" height="347.65"/>
    <rect class="cls-11" x="2680.33" y="402.02" width="115.53" height="1.7"/>
    <rect class="cls-11" x="2813.04" y="402.02" width="101.15" height="1.7"/>
    <rect class="cls-11" x="2914.18" y="402.02" width="77.71" height="1.7"/>
    <rect class="cls-11" x="2992.14" y="402.02" width="78" height="1.7"/>
    <rect class="cls-11" x="3070.14" y="402.02" width="89.69" height="1.7"/>
    <rect class="cls-11" x="2807.2" y="535.26" width="118.99" height="1.7"/>
    <rect class="cls-11" x="2977.21" y="535.26" width="92.92" height="1.7"/>
    <rect class="cls-11" x="3070.14" y="535.26" width="89.69" height="1.7"/>
    <rect class="cls-11" x="2680.33" y="1408.7" width="77.79" height="1.9"/>
    <rect class="cls-11" x="2758.12" y="1408.7" width="37.42" height="1.7"/>
    <rect class="cls-11" x="2813.41" y="1408.7" width="22.76" height="1.7"/>
    <rect class="cls-11" x="2836.23" y="1408.7" width="77.79" height="1.7"/>
    <rect class="cls-11" x="2914.02" y="1408.7" width="26.7" height="1.7"/>
    <rect class="cls-11" x="2992.14" y="1408.7" width="77.79" height="1.7"/>
    <rect class="cls-11" x="3069.93" y="1408.7" width="89.23" height="1.7"/>
    <rect class="cls-11" x="2524.58" y="1408.7" width="77.79" height="1.7"/>
    <rect x="2599.54" y="1409.79" width="5.67" height="367.34"/>
    <rect class="cls-11" x="2807.2" y="1272.35" width="118.99" height="1.7"/>
    <rect class="cls-11" x="2926.37" y="1272.35" width="79.17" height="1.7"/>
    <rect class="cls-11" x="3005.54" y="1272.35" width="79.17" height="1.7"/>
    <rect class="cls-11" x="3084.7" y="1272.35" width="75.12" height="1.7"/>
    <rect class="cls-11" x="2602.37" y="1408.7" width="26.7" height="1.7"/>
    <rect class="cls-16" x="1721.32" y="534.17" width="1074.75" height="742.71"/>
    <rect class="cls-6" x="1438.5" y="411.43" width="83.91" height="81.64"/>
    <rect class="cls-6" x="1505.4" y="411.43" width="17.01" height="81.64"/>
    <rect class="cls-6" x="1488.39" y="411.43" width="17.01" height="81.64"/>
    <rect class="cls-6" x="1471.38" y="411.43" width="17.01" height="81.64"/>
    <rect class="cls-6" x="1454.38" y="411.43" width="17.01" height="81.64"/>
    <rect x="2489.11" y="34.32" width="37.01" height="23.31"/>
    <polygon
            points="2131.19 262.08 2131.19 34.2 2125.53 34.2 2125.53 262.08 2045.13 262.08 2045.13 267.75 2149.57 267.75 2149.57 404.34 2155.24 404.34 2155.24 267.75 2155.24 263.03 2155.24 262.08 2131.19 262.08"/>
    <rect class="cls-13" x="1932.47" y="265.46" width="112.67" height="1.57"/>
    <rect class="cls-13" x="1823.45" y="265.46" width="57.94" height="1.57"/>
    <rect class="cls-13" x="1698.89" y="400.15" width="76.28" height="1.57"/>
    <rect class="cls-13" x="1623.84" y="400.15" width="75.14" height="1.57"/>
    <rect x="1775.17" y="386.78" width="17.18" height="17.18"/>
    <rect x="3149.74" y="1771.22" width="10.08" height="17.01"/>
    <rect x="3149.74" y="22.8" width="10.08" height="17.01"/>
    <polygon
            points="3195.55 1156.75 3198.38 1156.75 3198.38 1127.91 3195.55 1127.91 3195.55 765.46 3198.38 765.46 3198.38 736.62 3195.55 736.62 3195.55 496 3181.2 496 3181.2 1320.6 3195.55 1320.6 3195.55 1156.75"/>
    <polygon
            points="3181.2 1371.79 3181.2 1565.11 3195.55 1565.11 3195.55 1564.68 3217.4 1564.68 3217.4 1535.85 3195.55 1535.85 3195.55 1371.79 3181.2 1371.79"/>
    <rect x="3159.83" y="495.99" width="17.86" height="824.6"/>
    <rect x="3159.83" y="1371.79" width="17.86" height="416.44"/>
    <rect class="cls-17" x="2994.69" y="34.87" width="73.7" height="14.17"/>
    <rect class="cls-18" x="2998.26" y="46.43" width="58.25" height="0.75"/>
    <rect class="cls-18" x="2998.26" y="44.37" width="58.25" height="0.75"/>
    <rect class="cls-18" x="2998.26" y="42.31" width="58.25" height="0.75"/>
    <rect class="cls-18" x="2998.26" y="40.25" width="58.25" height="0.75"/>
    <rect class="cls-18" x="2998.26" y="38.19" width="58.25" height="0.75"/>
    <rect class="cls-17" x="2994.69" y="1761.68" width="73.7" height="14.17"/>
    <rect class="cls-18" x="3006.56" y="1763.54" width="58.25" height="0.75"/>
    <rect class="cls-18" x="3006.56" y="1765.6" width="58.25" height="0.75"/>
    <rect class="cls-18" x="3006.56" y="1767.66" width="58.25" height="0.75"/>
    <rect class="cls-18" x="3006.56" y="1769.72" width="58.25" height="0.75"/>
    <rect class="cls-18" x="3006.56" y="1771.79" width="58.25" height="0.75"/>
    <rect class="cls-17" x="2838.78" y="1761.68" width="73.7" height="14.17"/>
    <rect class="cls-18" x="2850.66" y="1763.54" width="58.25" height="0.75"/>
    <rect class="cls-18" x="2850.66" y="1765.6" width="58.25" height="0.75"/>
    <rect class="cls-18" x="2850.66" y="1767.66" width="58.25" height="0.75"/>
    <rect class="cls-18" x="2850.66" y="1769.72" width="58.25" height="0.75"/>
    <rect class="cls-18" x="2850.66" y="1771.79" width="58.25" height="0.75"/>
    <rect class="cls-17" x="2837.93" y="34.87" width="73.7" height="14.17"/>
    <rect class="cls-18" x="2841.51" y="46.43" width="58.25" height="0.75"/>
    <rect class="cls-18" x="2841.51" y="44.37" width="58.25" height="0.75"/>
    <rect class="cls-18" x="2841.51" y="42.31" width="58.25" height="0.75"/>
    <rect class="cls-18" x="2841.51" y="40.25" width="58.25" height="0.75"/>
    <rect class="cls-18" x="2841.51" y="38.19" width="58.25" height="0.75"/>
    <rect class="cls-17" x="2681.18" y="34.87" width="73.7" height="14.17"/>
    <rect class="cls-18" x="2684.75" y="46.43" width="58.25" height="0.75"/>
    <rect class="cls-18" x="2684.75" y="44.37" width="58.25" height="0.75"/>
    <rect class="cls-18" x="2684.75" y="42.31" width="58.25" height="0.75"/>
    <rect class="cls-18" x="2684.75" y="40.25" width="58.25" height="0.75"/>
    <rect class="cls-18" x="2684.75" y="38.19" width="58.25" height="0.75"/>
    <rect class="cls-17" x="2526.12" y="34.87" width="73.7" height="14.17"/>
    <rect class="cls-18" x="2529.69" y="46.43" width="58.25" height="0.75"/>
    <rect class="cls-18" x="2529.69" y="44.37" width="58.25" height="0.75"/>
    <rect class="cls-18" x="2529.69" y="42.31" width="58.25" height="0.75"/>
    <rect class="cls-18" x="2529.69" y="40.25" width="58.25" height="0.75"/>
    <rect class="cls-18" x="2529.69" y="38.19" width="58.25" height="0.75"/>
    <rect class="cls-17" x="2370.22" y="34.87" width="73.7" height="14.17"/>
    <rect class="cls-18" x="2373.79" y="46.43" width="58.25" height="0.75"/>
    <rect class="cls-18" x="2373.79" y="44.37" width="58.25" height="0.75"/>
    <rect class="cls-18" x="2373.79" y="42.31" width="58.25" height="0.75"/>
    <rect class="cls-18" x="2373.79" y="40.25" width="58.25" height="0.75"/>
    <rect class="cls-18" x="2373.79" y="38.19" width="58.25" height="0.75"/>
    <rect class="cls-17" x="2215.04" y="34.87" width="73.7" height="14.17"/>
    <rect class="cls-18" x="2218.62" y="46.43" width="58.25" height="0.75"/>
    <rect class="cls-18" x="2218.62" y="44.37" width="58.25" height="0.75"/>
    <rect class="cls-18" x="2218.62" y="42.31" width="58.25" height="0.75"/>
    <rect class="cls-18" x="2218.62" y="40.25" width="58.25" height="0.75"/>
    <rect class="cls-18" x="2218.62" y="38.19" width="58.25" height="0.75"/>
    <rect class="cls-17" x="1981.3" y="34.87" width="73.7" height="14.17"/>
    <rect class="cls-18" x="1984.88" y="46.43" width="58.25" height="0.75"/>
    <rect class="cls-18" x="1984.88" y="44.37" width="58.25" height="0.75"/>
    <rect class="cls-18" x="1984.88" y="42.31" width="58.25" height="0.75"/>
    <rect class="cls-18" x="1984.88" y="40.25" width="58.25" height="0.75"/>
    <rect class="cls-18" x="1984.88" y="38.19" width="58.25" height="0.75"/>
    <rect class="cls-17" x="1824.8" y="34.87" width="73.7" height="14.17"/>
    <rect class="cls-18" x="1828.37" y="46.43" width="58.25" height="0.75"/>
    <rect class="cls-18" x="1828.37" y="44.37" width="58.25" height="0.75"/>
    <rect class="cls-18" x="1828.37" y="42.31" width="58.25" height="0.75"/>
    <rect class="cls-18" x="1828.37" y="40.25" width="58.25" height="0.75"/>
    <rect class="cls-18" x="1828.37" y="38.19" width="58.25" height="0.75"/>
    <rect class="cls-17" x="1669.49" y="34.87" width="73.7" height="14.17"/>
    <rect class="cls-18" x="1673.06" y="46.43" width="58.25" height="0.75"/>
    <rect class="cls-18" x="1673.06" y="44.37" width="58.25" height="0.75"/>
    <rect class="cls-18" x="1673.06" y="42.31" width="58.25" height="0.75"/>
    <rect class="cls-18" x="1673.06" y="40.25" width="58.25" height="0.75"/>
    <rect class="cls-18" x="1673.06" y="38.19" width="58.25" height="0.75"/>
    <rect class="cls-17" x="1514.66" y="34.87" width="73.7" height="14.17"/>
    <rect class="cls-18" x="1518.23" y="46.43" width="58.25" height="0.75"/>
    <rect class="cls-18" x="1518.23" y="44.37" width="58.25" height="0.75"/>
    <rect class="cls-18" x="1518.23" y="42.31" width="58.25" height="0.75"/>
    <rect class="cls-18" x="1518.23" y="40.25" width="58.25" height="0.75"/>
    <rect class="cls-18" x="1518.23" y="38.19" width="58.25" height="0.75"/>
    <rect class="cls-17" x="1124.98" y="49.24" width="73.7" height="14.17"/>
    <rect class="cls-18" x="1128.55" y="60.81" width="58.25" height="0.75"/>
    <rect class="cls-18" x="1128.55" y="58.74" width="58.25" height="0.75"/>
    <rect class="cls-18" x="1128.55" y="56.68" width="58.25" height="0.75"/>
    <rect class="cls-18" x="1128.55" y="54.62" width="58.25" height="0.75"/>
    <rect class="cls-18" x="1128.55" y="52.56" width="58.25" height="0.75"/>
    <rect class="cls-17" x="946.64" y="49.24" width="73.7" height="14.17"/>
    <rect class="cls-18" x="950.22" y="60.81" width="58.25" height="0.75"/>
    <rect class="cls-18" x="950.22" y="58.74" width="58.25" height="0.75"/>
    <rect class="cls-18" x="950.22" y="56.68" width="58.25" height="0.75"/>
    <rect class="cls-18" x="950.22" y="54.62" width="58.25" height="0.75"/>
    <rect class="cls-18" x="950.22" y="52.56" width="58.25" height="0.75"/>
    <rect class="cls-17" x="778.64" y="49.24" width="73.7" height="14.17"/>
    <rect class="cls-18" x="782.22" y="60.81" width="58.25" height="0.75"/>
    <rect class="cls-18" x="782.22" y="58.74" width="58.25" height="0.75"/>
    <rect class="cls-18" x="782.22" y="56.68" width="58.25" height="0.75"/>
    <rect class="cls-18" x="782.22" y="54.62" width="58.25" height="0.75"/>
    <rect class="cls-18" x="782.22" y="52.56" width="58.25" height="0.75"/>
    <rect class="cls-17" x="607.66" y="49.24" width="73.7" height="14.17"/>
    <rect class="cls-18" x="611.24" y="60.81" width="58.25" height="0.75"/>
    <rect class="cls-18" x="611.24" y="58.74" width="58.25" height="0.75"/>
    <rect class="cls-18" x="611.24" y="56.68" width="58.25" height="0.75"/>
    <rect class="cls-18" x="611.24" y="54.62" width="58.25" height="0.75"/>
    <rect class="cls-18" x="611.24" y="52.56" width="58.25" height="0.75"/>
    <rect class="cls-17" x="437.58" y="49.24" width="73.7" height="14.17"/>
    <rect class="cls-18" x="441.16" y="60.81" width="58.25" height="0.75"/>
    <rect class="cls-18" x="441.16" y="58.74" width="58.25" height="0.75"/>
    <rect class="cls-18" x="441.16" y="56.68" width="58.25" height="0.75"/>
    <rect class="cls-18" x="441.16" y="54.62" width="58.25" height="0.75"/>
    <rect class="cls-18" x="441.16" y="52.56" width="58.25" height="0.75"/>
    <rect class="cls-17" x="267.5" y="49.24" width="73.7" height="14.17"/>
    <rect class="cls-18" x="271.08" y="60.81" width="58.25" height="0.75"/>
    <rect class="cls-18" x="271.08" y="58.74" width="58.25" height="0.75"/>
    <rect class="cls-18" x="271.08" y="56.68" width="58.25" height="0.75"/>
    <rect class="cls-18" x="271.08" y="54.62" width="58.25" height="0.75"/>
    <rect class="cls-18" x="271.08" y="52.56" width="58.25" height="0.75"/>
    <rect class="cls-17" x="96.47" y="49.24" width="73.7" height="14.17"/>
    <rect class="cls-18" x="100.05" y="60.81" width="58.25" height="0.75"/>
    <rect class="cls-18" x="100.05" y="58.74" width="58.25" height="0.75"/>
    <rect class="cls-18" x="100.05" y="56.68" width="58.25" height="0.75"/>
    <rect class="cls-18" x="100.05" y="54.62" width="58.25" height="0.75"/>
    <rect class="cls-18" x="100.05" y="52.56" width="58.25" height="0.75"/>
    <rect class="cls-17" x="1286.36" y="49.24" width="73.7" height="14.17"/>
    <rect class="cls-18" x="1289.94" y="60.81" width="58.25" height="0.75"/>
    <rect class="cls-18" x="1289.94" y="58.74" width="58.25" height="0.75"/>
    <rect class="cls-18" x="1289.94" y="56.68" width="58.25" height="0.75"/>
    <rect class="cls-18" x="1289.94" y="54.62" width="58.25" height="0.75"/>
    <rect class="cls-18" x="1289.94" y="52.56" width="58.25" height="0.75"/>
    <polygon class="cls-2"
             points="1953.05 33.9 1945.51 33.9 1430.69 33.9 1430.69 25.39 1945.51 25.39 1953.05 25.39 3149.14 25.39 3149.14 33.9 1953.05 33.9"/>
    <polygon class="cls-12"
             points="1953.23 39.81 1945.69 39.81 1430.69 39.81 1430.69 22.8 1945.69 22.8 1953.23 22.8 3149.74 22.8 3149.74 39.81 1953.23 39.81"/>
    <rect class="cls-13" x="1443" y="27.99" width="1715.18" height="3.31"/>
    <rect class="cls-14" x="1443" y="25.39" width="3.2" height="8.5"/>
    <rect class="cls-14" x="1509.33" y="25.39" width="3.4" height="8.5"/>
    <rect class="cls-14" x="1587.29" y="25.39" width="3.4" height="8.5"/>
    <rect class="cls-14" x="1665.24" y="25.39" width="3.4" height="8.5"/>
    <rect class="cls-14" x="1743.19" y="25.39" width="3.4" height="8.5"/>
    <rect class="cls-14" x="1821.14" y="25.39" width="3.4" height="8.5"/>
    <rect class="cls-14" x="1899.1" y="25.39" width="3.4" height="8.5"/>
    <rect class="cls-14" x="1977.05" y="25.39" width="3.4" height="8.5"/>
    <rect class="cls-14" x="2055" y="25.39" width="3.4" height="8.5"/>
    <rect class="cls-14" x="2132.96" y="25.39" width="3.4" height="8.5"/>
    <rect class="cls-14" x="2210.91" y="25.39" width="3.4" height="8.5"/>
    <rect class="cls-14" x="2288.86" y="25.39" width="3.4" height="8.5"/>
    <rect class="cls-14" x="2366.81" y="25.39" width="3.4" height="8.5"/>
    <rect class="cls-14" x="2444.77" y="25.39" width="3.4" height="8.5"/>
    <rect class="cls-14" x="2522.72" y="25.39" width="3.4" height="8.5"/>
    <rect class="cls-14" x="2600.67" y="25.39" width="3.4" height="8.5"/>
    <rect class="cls-14" x="2678.62" y="25.39" width="3.4" height="8.5"/>
    <rect class="cls-14" x="2756.58" y="25.39" width="3.4" height="8.5"/>
    <rect class="cls-14" x="2834.53" y="25.39" width="3.4" height="8.5"/>
    <rect class="cls-14" x="2912.48" y="25.39" width="3.4" height="8.5"/>
    <rect class="cls-14" x="2990.44" y="25.39" width="3.4" height="8.5"/>
    <rect class="cls-14" x="3068.39" y="25.39" width="3.4" height="8.5"/>
    <rect class="cls-14" x="3146.34" y="25.39" width="3.4" height="8.5"/>
    <polygon
            points="1792.35 1407.21 1775.17 1407.21 1775.17 1419.6 1775.17 1424.38 1775.17 1486.66 1780.84 1486.66 1780.84 1424.38 1792.35 1424.38 1792.35 1407.21"/>
    <polygon
            points="1623.3 1278.09 1623.3 1276.75 1426.32 1276.75 1426.32 1282.42 1617.63 1282.42 1617.63 1413.15 1623.3 1413.15 1623.3 1278.09 1623.3 1278.09"/>
    <polygon
            points="1848.85 1543.64 1780.84 1543.64 1780.84 1537.68 1775.17 1537.68 1775.17 1663.41 1742.06 1663.41 1742.06 1669.08 1742.06 1669.08 1742.06 1776.96 1747.73 1776.96 1747.73 1669.08 1780.84 1669.08 1780.84 1668.9 1780.84 1668.9 1780.84 1549.31 1848.85 1549.31 1848.85 1543.64"/>
    <rect x="718.32" y="863.69" width="5.67" height="235.5"/>
    <polygon
            points="1254.71 397.83 1254.71 375.97 1254.66 375.97 1254.66 48.37 1246.29 48.37 1246.29 375.97 1246.31 375.97 1246.31 397.83 1245.97 398.18 1188.08 398.18 1188.08 406.56 1245.97 406.56 1245.97 406.58 1288.27 406.58 1288.27 397.83 1254.71 397.83"/>
    <rect class="cls-17" x="1428.29" y="1298.46" width="14.17" height="73.7"/>
    <rect class="cls-18" x="1439.85" y="1310.33" width="0.75" height="58.25"/>
    <rect class="cls-18" x="1437.79" y="1310.33" width="0.75" height="58.25"/>
    <rect class="cls-18" x="1435.73" y="1310.33" width="0.75" height="58.25"/>
    <rect class="cls-18" x="1433.67" y="1310.33" width="0.75" height="58.25"/>
    <rect class="cls-18" x="1431.61" y="1310.33" width="0.75" height="58.25"/>
    <rect class="cls-17" x="1428.29" y="1005.25" width="14.17" height="73.7"/>
    <rect class="cls-18" x="1439.85" y="1017.12" width="0.75" height="58.25"/>
    <rect class="cls-18" x="1437.79" y="1017.12" width="0.75" height="58.25"/>
    <rect class="cls-18" x="1435.73" y="1017.12" width="0.75" height="58.25"/>
    <rect class="cls-18" x="1433.67" y="1017.12" width="0.75" height="58.25"/>
    <rect class="cls-18" x="1431.61" y="1017.12" width="0.75" height="58.25"/>
    <rect class="cls-17" x="1428.29" y="824.83" width="14.17" height="73.7"/>
    <rect class="cls-18" x="1439.85" y="836.71" width="0.75" height="58.25"/>
    <rect class="cls-18" x="1437.79" y="836.71" width="0.75" height="58.25"/>
    <rect class="cls-18" x="1435.73" y="836.71" width="0.75" height="58.25"/>
    <rect class="cls-18" x="1433.67" y="836.71" width="0.75" height="58.25"/>
    <rect class="cls-18" x="1431.61" y="836.71" width="0.75" height="58.25"/>
    <rect class="cls-17" x="1439.47" y="601.2" width="14.17" height="73.7"/>
    <rect class="cls-18" x="1451.03" y="613.08" width="0.75" height="58.25"/>
    <rect class="cls-18" x="1448.97" y="613.08" width="0.75" height="58.25"/>
    <rect class="cls-18" x="1446.91" y="613.08" width="0.75" height="58.25"/>
    <rect class="cls-18" x="1444.85" y="613.08" width="0.75" height="58.25"/>
    <rect class="cls-18" x="1442.79" y="613.08" width="0.75" height="58.25"/>
    <rect class="cls-17" x="1513.27" y="1759.12" width="73.7" height="14.17"/>
    <rect class="cls-18" x="1525.15" y="1760.98" width="58.25" height="0.75"/>
    <rect class="cls-18" x="1525.15" y="1763.04" width="58.25" height="0.75"/>
    <rect class="cls-18" x="1525.15" y="1765.1" width="58.25" height="0.75"/>
    <rect class="cls-18" x="1525.15" y="1767.16" width="58.25" height="0.75"/>
    <rect class="cls-18" x="1525.15" y="1769.22" width="58.25" height="0.75"/>
    <rect class="cls-17" x="1219.76" y="1763.79" width="73.7" height="14.17"/>
    <rect class="cls-18" x="1231.64" y="1765.65" width="58.25" height="0.75"/>
    <rect class="cls-18" x="1231.64" y="1767.71" width="58.25" height="0.75"/>
    <rect class="cls-18" x="1231.64" y="1769.77" width="58.25" height="0.75"/>
    <rect class="cls-18" x="1231.64" y="1771.83" width="58.25" height="0.75"/>
    <rect class="cls-18" x="1231.64" y="1773.89" width="58.25" height="0.75"/>
    <rect class="cls-17" x="1059.49" y="1763.79" width="73.7" height="14.17"/>
    <rect class="cls-18" x="1071.37" y="1765.65" width="58.25" height="0.75"/>
    <rect class="cls-18" x="1071.37" y="1767.71" width="58.25" height="0.75"/>
    <rect class="cls-18" x="1071.37" y="1769.77" width="58.25" height="0.75"/>
    <rect class="cls-18" x="1071.37" y="1771.83" width="58.25" height="0.75"/>
    <rect class="cls-18" x="1071.37" y="1773.89" width="58.25" height="0.75"/>
    <rect class="cls-17" x="912.63" y="1763.79" width="73.7" height="14.17"/>
    <rect class="cls-18" x="924.51" y="1765.65" width="58.25" height="0.75"/>
    <rect class="cls-18" x="924.51" y="1767.71" width="58.25" height="0.75"/>
    <rect class="cls-18" x="924.51" y="1769.77" width="58.25" height="0.75"/>
    <rect class="cls-18" x="924.51" y="1771.83" width="58.25" height="0.75"/>
    <rect class="cls-18" x="924.51" y="1773.89" width="58.25" height="0.75"/>
    <rect class="cls-17" x="773.49" y="1763.79" width="73.7" height="14.17"/>
    <rect class="cls-18" x="785.37" y="1765.65" width="58.25" height="0.75"/>
    <rect class="cls-18" x="785.37" y="1767.71" width="58.25" height="0.75"/>
    <rect class="cls-18" x="785.37" y="1769.77" width="58.25" height="0.75"/>
    <rect class="cls-18" x="785.37" y="1771.83" width="58.25" height="0.75"/>
    <rect class="cls-18" x="785.37" y="1773.89" width="58.25" height="0.75"/>
    <rect class="cls-17" x="610.86" y="1763.79" width="73.7" height="14.17"/>
    <rect class="cls-18" x="622.74" y="1765.65" width="58.25" height="0.75"/>
    <rect class="cls-18" x="622.74" y="1767.71" width="58.25" height="0.75"/>
    <rect class="cls-18" x="622.74" y="1769.77" width="58.25" height="0.75"/>
    <rect class="cls-18" x="622.74" y="1771.83" width="58.25" height="0.75"/>
    <rect class="cls-18" x="622.74" y="1773.89" width="58.25" height="0.75"/>
    <rect class="cls-17" x="450.24" y="1763.79" width="73.7" height="14.17"/>
    <rect class="cls-18" x="462.12" y="1765.65" width="58.25" height="0.75"/>
    <rect class="cls-18" x="462.12" y="1767.71" width="58.25" height="0.75"/>
    <rect class="cls-18" x="462.12" y="1769.77" width="58.25" height="0.75"/>
    <rect class="cls-18" x="462.12" y="1771.83" width="58.25" height="0.75"/>
    <rect class="cls-18" x="462.12" y="1773.89" width="58.25" height="0.75"/>
    <rect class="cls-17" x="291.53" y="1763.79" width="73.7" height="14.17"/>
    <rect class="cls-18" x="303.4" y="1765.65" width="58.25" height="0.75"/>
    <rect class="cls-18" x="303.4" y="1767.71" width="58.25" height="0.75"/>
    <rect class="cls-18" x="303.4" y="1769.77" width="58.25" height="0.75"/>
    <rect class="cls-18" x="303.4" y="1771.83" width="58.25" height="0.75"/>
    <rect class="cls-18" x="303.4" y="1773.89" width="58.25" height="0.75"/>
    <rect class="cls-17" x="156.62" y="1763.79" width="73.7" height="14.17"/>
    <rect class="cls-18" x="168.5" y="1765.65" width="58.25" height="0.75"/>
    <rect class="cls-18" x="168.5" y="1767.71" width="58.25" height="0.75"/>
    <rect class="cls-18" x="168.5" y="1769.77" width="58.25" height="0.75"/>
    <rect class="cls-18" x="168.5" y="1771.83" width="58.25" height="0.75"/>
    <rect class="cls-18" x="168.5" y="1773.89" width="58.25" height="0.75"/>
    <rect class="cls-17" x="1748.05" y="1759.12" width="73.7" height="14.17"/>
    <rect class="cls-18" x="1759.93" y="1760.98" width="58.25" height="0.75"/>
    <rect class="cls-18" x="1759.93" y="1763.04" width="58.25" height="0.75"/>
    <rect class="cls-18" x="1759.93" y="1765.1" width="58.25" height="0.75"/>
    <rect class="cls-18" x="1759.93" y="1767.16" width="58.25" height="0.75"/>
    <rect class="cls-18" x="1759.93" y="1769.22" width="58.25" height="0.75"/>
    <rect class="cls-17" x="1980.32" y="1759.12" width="73.7" height="14.17"/>
    <rect class="cls-18" x="1992.19" y="1760.98" width="58.25" height="0.75"/>
    <rect class="cls-18" x="1992.19" y="1763.04" width="58.25" height="0.75"/>
    <rect class="cls-18" x="1992.19" y="1765.1" width="58.25" height="0.75"/>
    <rect class="cls-18" x="1992.19" y="1767.16" width="58.25" height="0.75"/>
    <rect class="cls-18" x="1992.19" y="1769.22" width="58.25" height="0.75"/>
    <rect class="cls-17" x="2214.78" y="1759.12" width="73.7" height="14.17"/>
    <rect class="cls-18" x="2226.66" y="1760.98" width="58.25" height="0.75"/>
    <rect class="cls-18" x="2226.66" y="1763.04" width="58.25" height="0.75"/>
    <rect class="cls-18" x="2226.66" y="1765.1" width="58.25" height="0.75"/>
    <rect class="cls-18" x="2226.66" y="1767.16" width="58.25" height="0.75"/>
    <rect class="cls-18" x="2226.66" y="1769.22" width="58.25" height="0.75"/>
    <rect class="cls-17" x="2485.77" y="1759.12" width="73.7" height="14.17"/>
    <rect class="cls-18" x="2497.65" y="1760.98" width="58.25" height="0.75"/>
    <rect class="cls-18" x="2497.65" y="1763.04" width="58.25" height="0.75"/>
    <rect class="cls-18" x="2497.65" y="1765.1" width="58.25" height="0.75"/>
    <rect class="cls-18" x="2497.65" y="1767.16" width="58.25" height="0.75"/>
    <rect class="cls-18" x="2497.65" y="1769.22" width="58.25" height="0.75"/>
    <rect class="cls-17" x="2683.28" y="1759.12" width="73.7" height="14.17"/>
    <rect class="cls-18" x="2695.15" y="1760.98" width="58.25" height="0.75"/>
    <rect class="cls-18" x="2695.15" y="1763.04" width="58.25" height="0.75"/>
    <rect class="cls-18" x="2695.15" y="1765.1" width="58.25" height="0.75"/>
    <rect class="cls-18" x="2695.15" y="1767.16" width="58.25" height="0.75"/>
    <rect class="cls-18" x="2695.15" y="1769.22" width="58.25" height="0.75"/>
    <rect class="cls-17" x="2993.77" y="1759.12" width="73.7" height="14.17"/>
    <rect class="cls-18" x="3005.65" y="1760.98" width="58.25" height="0.75"/>
    <rect class="cls-18" x="3005.65" y="1763.04" width="58.25" height="0.75"/>
    <rect class="cls-18" x="3005.65" y="1765.1" width="58.25" height="0.75"/>
    <rect class="cls-18" x="3005.65" y="1767.16" width="58.25" height="0.75"/>
    <rect class="cls-18" x="3005.65" y="1769.22" width="58.25" height="0.75"/>
    <rect class="cls-17" x="2838.86" y="1759.12" width="73.7" height="14.17"/>
    <rect class="cls-18" x="2850.73" y="1760.98" width="58.25" height="0.75"/>
    <rect class="cls-18" x="2850.73" y="1763.04" width="58.25" height="0.75"/>
    <rect class="cls-18" x="2850.73" y="1765.1" width="58.25" height="0.75"/>
    <rect class="cls-18" x="2850.73" y="1767.16" width="58.25" height="0.75"/>
    <rect class="cls-18" x="2850.73" y="1769.22" width="58.25" height="0.75"/>
    <rect class="cls-19" x="2122.84" y="34.2" width="13.61" height="6.06"/>
    <rect class="cls-19" x="1776.66" y="34.2" width="13.61" height="6.06"/>
    <rect class="cls-19" x="2469.03" y="34.2" width="13.61" height="6.06"/>
    <rect class="cls-19" x="2815.22" y="34.2" width="13.61" height="6.06"/>
    <rect class="cls-19" x="2122.84" y="1771.22" width="13.61" height="6.06"/>
    <rect class="cls-19" x="1776.66" y="1771.22" width="13.61" height="6.06"/>
    <rect class="cls-19" x="2469.03" y="1771.22" width="13.61" height="6.06"/>
    <rect class="cls-19" x="2815.22" y="1771.22" width="13.61" height="6.06"/>
    <rect x="1058.38" y="43.84" width="22.68" height="22.68"/>
    <rect x="1396.58" y="43.84" width="22.68" height="22.68"/>
    <polygon
            points="1081.06 398.18 1081.06 383.88 1073.48 383.88 1073.48 66.52 1065.11 66.52 1065.11 383.88 1058.38 383.88 1058.38 398.18 1009.9 398.18 1009.9 406.56 1058.38 406.56 1081.06 406.56 1137.06 406.56 1137.06 398.18 1081.06 398.18"/>
    <polygon
            points="740.89 398.18 740.89 383.88 718.22 383.88 718.22 398.18 576.29 398.18 576.29 406.56 718.22 406.56 740.89 406.56 808.24 406.56 808.24 398.18 740.89 398.18"/>
    <polygon
            points="718.22 66.52 729.55 66.52 729.55 383.88 736.37 383.88 736.37 66.52 740.89 66.52 740.89 48.37 763.58 48.37 763.58 22.86 695.53 22.86 695.53 48.37 718.22 48.37 718.22 66.52"/>
    <polygon
            points="378.06 66.52 389.39 66.52 389.39 383.88 396.21 383.88 396.21 66.52 400.73 66.52 400.73 48.37 423.42 48.37 423.42 22.86 355.37 22.86 355.37 48.37 378.06 48.37 378.06 66.52"/>
    <polygon
            points="400.73 398.18 400.73 383.88 378.06 383.88 378.06 398.18 340.31 398.18 340.31 406.56 378.06 406.56 400.73 406.56 525.27 406.56 525.27 398.18 400.73 398.18"/>
    <polygon
            points="60.57 398.18 60.57 383.88 42.53 383.88 42.53 66.52 60.57 66.52 60.57 48.37 91.77 48.37 91.77 22.86 42.53 22.86 42.53 22.86 20.9 22.86 20.9 412.36 42.53 412.36 42.53 406.56 60.57 406.56 99.07 406.56 99.07 398.18 60.57 398.18"/>
    <polygon
            points="1623.65 398.04 1438.5 398.04 1438.5 39.81 1443 39.81 1443 22.8 1367.29 22.8 1367.29 48.3 1398.47 48.3 1398.47 66.41 1416.62 66.41 1416.62 383.88 1396.58 383.88 1396.58 397.83 1365.94 397.83 1365.94 406.58 1399.04 406.58 1399.04 406.57 1416.62 406.57 1416.62 411.43 1438.5 411.43 1438.5 403.83 1623.65 403.83 1623.65 398.04"/>
    <rect x="1396.58" y="724.31" width="22.68" height="22.68"/>
    <polygon
            points="1438.23 491.9 1438.23 491.57 1416.82 491.57 1416.82 491.61 1372.76 491.61 1372.76 492.14 1365.1 492.14 1365.1 497.33 1416.62 497.33 1416.62 497.28 1416.62 497.28 1416.62 724.06 1398.47 724.06 1398.47 746.74 1093.61 746.78 1093.61 497.28 1109.99 497.28 1109.99 491.61 1069.72 491.61 1069.72 497.28 1086.84 497.28 1086.84 746.78 1081.06 746.78 1081.06 724.31 1058.38 724.31 1058.38 746.79 740.89 746.83 740.89 724.31 723.99 724.31 723.99 497.28 763.58 497.28 763.58 491.61 718.32 491.61 718.32 497.28 718.32 497.28 718.32 724.31 718.22 724.31 718.22 746.99 718.32 746.99 718.32 784.53 718.22 784.53 718.22 801.54 718.32 801.54 718.32 806.6 723.99 806.6 723.99 801.54 740.89 801.54 740.89 784.53 729.54 784.53 729.54 764.4 1388.2 764.4 1388.2 784.44 1387.13 784.44 1387.13 801.73 1412.08 801.73 1412.08 1086.9 1412.04 1086.9 1412.04 1098.65 1387.13 1098.65 1387.13 1113.54 1412.08 1113.54 1412.08 1118.76 1412.08 1125.87 1412.08 1385.67 1412.08 1411.7 1412.08 1436.55 1387.13 1436.55 1387.13 1453.84 1412.08 1453.84 1412.08 1747.23 1387.13 1747.23 1387.13 1778.55 1357.29 1778.55 1357.29 1778.65 1307.77 1778.65 1307.77 1804.17 1412.03 1804.17 1412.03 1804.06 1426.25 1804.06 1426.25 1411.7 1426.25 1125.87 1426.25 764.98 1438.23 764.98 1438.23 764.88 1438.5 764.88 1438.5 491.9 1438.23 491.9"/>
    <rect x="1387.18" y="784.53" width="22.68" height="17.01"/>
    <rect x="718.22" y="1096.62" width="22.68" height="17.01"/>
    <rect x="49.23" y="1096.62" width="22.68" height="17.01"/>
    <rect x="1387.18" y="1096.62" width="22.68" height="17.01"/>
    <rect x="1387.18" y="1436.85" width="22.68" height="17.01"/>
    <rect x="1387.18" y="1747.5" width="22.68" height="17.01"/>
    <line class="cls-5" x1="1522.78" y1="451.59" x2="1448.84" y2="451.59"/>
    <polygon class="cls-6" points="1448.84 461.94 1438.44 451.54 1448.84 441.14 1448.84 461.94"/>
    <circle class="cls-6" cx="1522.41" cy="451.59" r="4.66"/>
    <rect class="cls-3" x="1112.07" y="30.68" width="102.81" height="4.93"/>
    <rect class="cls-3" x="1205.73" y="1793.1" width="101.76" height="4.93"/>
    <rect class="cls-3" x="898.47" y="1793.1" width="102.03" height="4.93"/>
    <rect class="cls-3" x="759.32" y="1793.1" width="102.03" height="4.93"/>
    <rect class="cls-3" x="588.18" y="1793.1" width="119.06" height="4.93"/>
    <rect class="cls-3" x="436.08" y="1793.1" width="102.03" height="4.93"/>
    <rect class="cls-3" x="277.36" y="1793.1" width="102.03" height="4.93"/>
    <rect class="cls-3" x="142.38" y="1793.1" width="102.18" height="4.93"/>
    <rect class="cls-3" x="1039.91" y="1793.1" width="119.06" height="4.93"/>
    <line class="cls-6" x1="1366.51" y1="327.13" x2="1366.51" y2="326.42"/>
    <line class="cls-20" x1="1366.51" y1="325" x2="1366.51" y2="104.82"/>
    <polyline class="cls-6" points="1366.51 104.11 1366.51 103.4 1365.8 103.4"/>
    <line class="cls-21" x1="1364.39" y1="103.4" x2="1291.76" y2="103.4"/>
    <polyline class="cls-6" points="1291.06 103.4 1290.35 103.4 1290.35 104.11"/>
    <line class="cls-22" x1="1290.35" y1="105.53" x2="1290.35" y2="314.35"/>
    <line class="cls-6" x1="1290.35" y1="315.06" x2="1290.35" y2="315.76"/>
    <polygon class="cls-6" points="1278.89 315.76 1290.35 327.22 1301.8 315.76 1278.89 315.76"/>
    <polyline class="cls-16" points="1255.05 327.22 1396.64 327.22 1396.64 67.73"/>
    <rect class="cls-23" x="1112.66" y="493.64" width="49.4" height="1.86"/>
    <rect class="cls-23" x="1213.78" y="493.64" width="149.53" height="1.86"/>
    <rect class="cls-24" x="1160.66" y="492.59" width="2.81" height="3.97"/>
    <rect class="cls-24" x="1210.97" y="492.59" width="2.81" height="3.97"/>
    <rect class="cls-24" x="1261.28" y="492.59" width="2.81" height="3.97"/>
    <rect class="cls-24" x="1311.59" y="492.59" width="2.81" height="3.97"/>
    <rect class="cls-24" x="1361.9" y="492.59" width="2.81" height="3.97"/>
    <rect class="cls-24" x="1110.35" y="492.59" width="2.81" height="3.97"/>
    <rect class="cls-23" x="967.25" y="493.64" width="51.72" height="1.86"/>
    <rect class="cls-23" x="766.15" y="493.64" width="199.7" height="1.86"/>
    <rect class="cls-24" x="965.85" y="492.59" width="2.81" height="3.97"/>
    <rect class="cls-24" x="965.85" y="492.59" width="2.81" height="3.97"/>
    <rect class="cls-24" x="915.53" y="492.59" width="2.81" height="3.97"/>
    <rect class="cls-24" x="865.22" y="492.59" width="2.81" height="3.97"/>
    <rect class="cls-24" x="814.4" y="492.59" width="2.81" height="3.97"/>
    <rect class="cls-24" x="763.58" y="492.59" width="2.81" height="3.97"/>
    <rect class="cls-24" x="1018.97" y="492.59" width="2.81" height="3.97"/>
    <rect class="cls-24" x="426.01" y="492.95" width="2.98" height="2.98"/>
    <rect class="cls-24" x="479.13" y="492.95" width="2.98" height="2.98"/>
    <rect class="cls-23" x="429" y="493.7" width="50.13" height="1.49"/>
    <rect class="cls-7" x="1334.82" y="1109.71" width="51.56" height="1.74"/>
    <rect class="cls-7" x="1283.05" y="1109.71" width="51.56" height="1.74"/>
    <rect class="cls-7" x="1231.28" y="1109.71" width="51.56" height="1.74"/>
    <rect class="cls-7" x="1179.5" y="1109.71" width="51.56" height="1.74"/>
    <rect class="cls-7" x="1127.73" y="1109.71" width="51.56" height="1.74"/>
    <rect class="cls-7" x="1075.95" y="1109.71" width="51.56" height="1.74"/>
    <rect class="cls-7" x="1024.18" y="1109.71" width="51.56" height="1.74"/>
    <rect class="cls-7" x="972.41" y="1109.71" width="51.56" height="1.74"/>
    <rect class="cls-7" x="920.63" y="1109.71" width="51.56" height="1.74"/>
    <rect class="cls-7" x="868.86" y="1109.71" width="51.56" height="1.74"/>
    <rect class="cls-7" x="817.08" y="1109.71" width="51.56" height="1.74"/>
    <rect class="cls-7" x="741.49" y="1109.71" width="23.4" height="1.74"/>
    <rect class="cls-25" x="1416.62" y="551.12" width="21.83" height="36.6"/>
    <polygon
            points="627.52 718.63 627.52 746.73 400.73 746.73 400.73 718.27 378.06 718.27 378.06 746.73 60.57 746.73 60.57 724.31 42.53 724.31 42.53 497.28 121.53 497.28 121.53 491.61 42.53 491.61 42.53 491.61 20.9 491.61 20.9 764.66 32.81 764.66 32.81 1145.19 46.96 1145.19 46.96 1113.63 550.74 1113.63 550.74 1107.96 46.96 1107.96 46.96 801.54 71.91 801.54 71.91 764.4 601.22 764.4 601.22 801.54 627.52 801.54 627.52 806.6 633.19 806.6 633.19 752.4 633.19 746.73 633.19 718.63 627.52 718.63"/>
    <polygon
            points="71.91 1778.65 71.91 1747.5 46.97 1747.5 46.97 1738.01 32.82 1738.01 32.82 1778.65 32.81 1778.65 32.81 1804.17 142.38 1804.17 142.38 1778.65 71.91 1778.65"/>
    <polygon
            points="71.91 1436.85 46.97 1436.85 46.97 1224.84 32.82 1224.84 32.82 1686.68 46.97 1686.68 46.97 1453.86 71.91 1453.86 71.91 1436.85"/>
    <rect x="244.56" y="1778.65" width="32.72" height="25.51"/>
    <rect x="379.47" y="1778.65" width="56.54" height="25.51"/>
    <rect x="538.19" y="1778.65" width="50" height="25.51"/>
    <polygon
            points="740.89 1778.65 740.89 1747.5 718.22 1747.5 718.22 1778.65 707.24 1778.65 707.24 1804.17 759.36 1804.17 759.36 1778.65 740.89 1778.65"/>
    <rect x="861.32" y="1778.65" width="37.17" height="25.51"/>
    <rect x="1000.47" y="1778.65" width="39.45" height="25.51"/>
    <rect x="1158.97" y="1778.65" width="46.76" height="25.51"/>
    <rect class="cls-9" x="32.82" y="1686.68" width="14.15" height="51.33"/>
    <rect class="cls-26" x="2045.13" y="267.85" width="17.01" height="70.87"/>
    <rect class="cls-26" x="2028.13" y="267.85" width="17.01" height="70.87"/>
    <rect class="cls-26" x="2011.12" y="267.85" width="17.01" height="70.87"/>
    <rect class="cls-26" x="1994.11" y="267.85" width="17.01" height="70.87"/>
    <rect class="cls-26" x="1977.1" y="267.85" width="17.01" height="70.87"/>
    <rect class="cls-26" x="1960.09" y="267.85" width="17.01" height="70.87"/>
    <rect class="cls-26" x="2062.14" y="267.75" width="87.43" height="153.21"/>
    <line class="cls-6" x1="1943.49" y1="385.51" x2="1944.2" y2="385.51"/>
    <line class="cls-27" x1="1945.62" y1="385.51" x2="2104.44" y2="385.51"/>
    <polyline class="cls-6" points="2105.15 385.5 2105.86 385.5 2105.86 384.8"/>
    <line class="cls-28" x1="2105.86" y1="383.38" x2="2105.86" y2="304.7"/>
    <polyline class="cls-6" points="2105.86 304 2105.86 303.29 2105.15 303.29"/>
    <line class="cls-29" x1="2103.72" y1="303.29" x2="1973.07" y2="303.29"/>
    <line class="cls-6" x1="1972.36" y1="303.29" x2="1971.65" y2="303.29"/>
    <polygon class="cls-6" points="1971.65 291.83 1960.19 303.29 1971.65 314.74 1971.65 291.83"/>
    <polygon class="cls-6"
             points="1943.23 420.78 1943.23 338.6 1959.98 338.6 1959.98 267.93 2149.57 267.93 2149.57 338.6 2149.57 350.1 2149.57 420.78 1943.23 420.78"/>
    <line class="cls-5" x1="1943.49" y1="350.09" x2="2062.14" y2="350.09"/>
    <rect class="cls-26" x="2045.13" y="1472.13" width="17.01" height="70.87"/>
    <rect class="cls-26" x="2028.13" y="1472.13" width="17.01" height="70.87"/>
    <rect class="cls-26" x="2011.12" y="1472.13" width="17.01" height="70.87"/>
    <rect class="cls-26" x="1994.11" y="1472.13" width="17.01" height="70.87"/>
    <rect class="cls-26" x="1977.1" y="1472.13" width="17.01" height="70.87"/>
    <rect class="cls-26" x="1960.09" y="1472.13" width="17.01" height="70.87"/>
    <rect class="cls-26" x="2062.14" y="1389.89" width="87.43" height="153.21"/>
    <line class="cls-6" x1="1943.49" y1="1425.34" x2="1944.2" y2="1425.34"/>
    <line class="cls-27" x1="1945.62" y1="1425.34" x2="2104.44" y2="1425.34"/>
    <polyline class="cls-6" points="2105.15 1425.34 2105.86 1425.34 2105.86 1426.05"/>
    <line class="cls-28" x1="2105.86" y1="1427.47" x2="2105.86" y2="1506.14"/>
    <polyline class="cls-6" points="2105.86 1506.85 2105.86 1507.56 2105.15 1507.56"/>
    <line class="cls-29" x1="2103.72" y1="1507.56" x2="1973.07" y2="1507.56"/>
    <line class="cls-6" x1="1972.36" y1="1507.56" x2="1971.65" y2="1507.56"/>
    <polygon class="cls-6" points="1971.65 1519.02 1960.19 1507.56 1971.65 1496.11 1971.65 1519.02"/>
    <polygon class="cls-6"
             points="1943.23 1390.07 1943.23 1472.24 1959.98 1472.24 1959.98 1542.92 2149.57 1542.92 2149.57 1472.24 2149.57 1460.74 2149.57 1390.07 1943.23 1390.07"/>
    <line class="cls-5" x1="1943.49" y1="1460.76" x2="2062.14" y2="1460.76"/>
    <polygon class="cls-26"
             points="2796.07 529.65 2796.07 525.46 1717.51 525.46 1717.51 525.46 1713.32 525.46 1713.32 1285.71 1717.51 1285.71 1717.51 1285.71 2796.07 1285.71 2796.07 1281.52 1717.51 1281.52 1717.51 529.65 2796.07 529.65"/>
</svg>